<mxfile host="app.diagrams.net" modified="2024-03-19T09:15:28.955Z" agent="Mozilla/5.0 (Windows NT 10.0; Win64; x64) AppleWebKit/537.36 (KHTML, like Gecko) Chrome/122.0.0.0 Safari/537.36 Edg/122.0.0.0" etag="cyn3lT1QLkMJG8bJ3JTR" version="24.0.7" type="github">
  <diagram id="S4Dg8kI9vVAsZOoybEsX" name="EER">
    <mxGraphModel dx="1856" dy="650" grid="1" gridSize="10" guides="1" tooltips="1" connect="1" arrows="1" fold="1" page="1" pageScale="1" pageWidth="850" pageHeight="1100" math="0" shadow="0">
      <root>
        <mxCell id="0" />
        <mxCell id="1" parent="0" />
        <mxCell id="mtszT1-ioxk5tEWMHgzG-22" style="edgeStyle=orthogonalEdgeStyle;rounded=0;orthogonalLoop=1;jettySize=auto;html=1;exitX=1;exitY=1;exitDx=0;exitDy=0;endArrow=none;endFill=0;" edge="1" parent="1" source="mtszT1-ioxk5tEWMHgzG-1" target="mtszT1-ioxk5tEWMHgzG-19">
          <mxGeometry relative="1" as="geometry" />
        </mxCell>
        <mxCell id="mtszT1-ioxk5tEWMHgzG-1" value="PLANE_TYPE" style="rounded=1;arcSize=10;whiteSpace=wrap;html=1;align=center;" vertex="1" parent="1">
          <mxGeometry x="-240" y="100" width="100" height="40" as="geometry" />
        </mxCell>
        <mxCell id="mtszT1-ioxk5tEWMHgzG-8" style="edgeStyle=orthogonalEdgeStyle;rounded=0;orthogonalLoop=1;jettySize=auto;html=1;exitX=1;exitY=1;exitDx=0;exitDy=0;entryX=0;entryY=0;entryDx=0;entryDy=0;endArrow=none;endFill=0;" edge="1" parent="1" source="mtszT1-ioxk5tEWMHgzG-2" target="mtszT1-ioxk5tEWMHgzG-1">
          <mxGeometry relative="1" as="geometry" />
        </mxCell>
        <mxCell id="mtszT1-ioxk5tEWMHgzG-2" value="&lt;u&gt;Model&lt;/u&gt;" style="ellipse;whiteSpace=wrap;html=1;align=center;" vertex="1" parent="1">
          <mxGeometry x="-340" y="50" width="100" height="40" as="geometry" />
        </mxCell>
        <mxCell id="mtszT1-ioxk5tEWMHgzG-9" style="edgeStyle=orthogonalEdgeStyle;rounded=0;orthogonalLoop=1;jettySize=auto;html=1;exitX=0;exitY=1;exitDx=0;exitDy=0;entryX=1;entryY=0;entryDx=0;entryDy=0;endArrow=none;endFill=0;" edge="1" parent="1" source="mtszT1-ioxk5tEWMHgzG-3" target="mtszT1-ioxk5tEWMHgzG-1">
          <mxGeometry relative="1" as="geometry" />
        </mxCell>
        <mxCell id="mtszT1-ioxk5tEWMHgzG-3" value="Weight" style="ellipse;whiteSpace=wrap;html=1;align=center;" vertex="1" parent="1">
          <mxGeometry x="-140" y="60" width="100" height="40" as="geometry" />
        </mxCell>
        <mxCell id="mtszT1-ioxk5tEWMHgzG-5" style="edgeStyle=orthogonalEdgeStyle;rounded=0;orthogonalLoop=1;jettySize=auto;html=1;endArrow=none;endFill=0;" edge="1" parent="1" source="mtszT1-ioxk5tEWMHgzG-4" target="mtszT1-ioxk5tEWMHgzG-1">
          <mxGeometry relative="1" as="geometry" />
        </mxCell>
        <mxCell id="mtszT1-ioxk5tEWMHgzG-4" value="Capacity" style="ellipse;whiteSpace=wrap;html=1;align=center;" vertex="1" parent="1">
          <mxGeometry x="-240" y="30" width="100" height="40" as="geometry" />
        </mxCell>
        <mxCell id="mtszT1-ioxk5tEWMHgzG-10" value="WORKS_ON" style="shape=rhombus;perimeter=rhombusPerimeter;whiteSpace=wrap;html=1;align=center;" vertex="1" parent="1">
          <mxGeometry x="-10" y="90" width="120" height="60" as="geometry" />
        </mxCell>
        <mxCell id="mtszT1-ioxk5tEWMHgzG-11" value="" style="endArrow=none;html=1;rounded=0;" edge="1" parent="1">
          <mxGeometry relative="1" as="geometry">
            <mxPoint x="-140" y="120" as="sourcePoint" />
            <mxPoint x="-10" y="120" as="targetPoint" />
          </mxGeometry>
        </mxCell>
        <mxCell id="mtszT1-ioxk5tEWMHgzG-12" value="" style="endArrow=none;html=1;rounded=0;" edge="1" parent="1">
          <mxGeometry relative="1" as="geometry">
            <mxPoint x="110" y="120" as="sourcePoint" />
            <mxPoint x="270" y="120" as="targetPoint" />
          </mxGeometry>
        </mxCell>
        <mxCell id="mtszT1-ioxk5tEWMHgzG-124" style="edgeStyle=orthogonalEdgeStyle;rounded=0;orthogonalLoop=1;jettySize=auto;html=1;exitX=1;exitY=0.75;exitDx=0;exitDy=0;entryX=0.75;entryY=0;entryDx=0;entryDy=0;endArrow=none;endFill=0;" edge="1" parent="1" source="mtszT1-ioxk5tEWMHgzG-13">
          <mxGeometry relative="1" as="geometry">
            <mxPoint x="395" y="130" as="sourcePoint" />
            <mxPoint x="475" y="640" as="targetPoint" />
            <Array as="points">
              <mxPoint x="480" y="130" />
              <mxPoint x="480" y="640" />
            </Array>
          </mxGeometry>
        </mxCell>
        <mxCell id="mtszT1-ioxk5tEWMHgzG-13" value="EMPLOYEE" style="rounded=1;arcSize=10;whiteSpace=wrap;html=1;align=center;" vertex="1" parent="1">
          <mxGeometry x="270" y="100" width="100" height="40" as="geometry" />
        </mxCell>
        <mxCell id="mtszT1-ioxk5tEWMHgzG-17" value="" style="edgeStyle=orthogonalEdgeStyle;rounded=0;orthogonalLoop=1;jettySize=auto;html=1;endArrow=none;endFill=0;" edge="1" parent="1" source="mtszT1-ioxk5tEWMHgzG-14" target="mtszT1-ioxk5tEWMHgzG-13">
          <mxGeometry relative="1" as="geometry" />
        </mxCell>
        <mxCell id="mtszT1-ioxk5tEWMHgzG-14" value="Salary" style="ellipse;whiteSpace=wrap;html=1;align=center;" vertex="1" parent="1">
          <mxGeometry x="200" y="40" width="100" height="40" as="geometry" />
        </mxCell>
        <mxCell id="mtszT1-ioxk5tEWMHgzG-16" value="" style="edgeStyle=orthogonalEdgeStyle;rounded=0;orthogonalLoop=1;jettySize=auto;html=1;endArrow=none;endFill=0;" edge="1" parent="1" source="mtszT1-ioxk5tEWMHgzG-15" target="mtszT1-ioxk5tEWMHgzG-13">
          <mxGeometry relative="1" as="geometry">
            <Array as="points">
              <mxPoint x="390" y="100" />
            </Array>
          </mxGeometry>
        </mxCell>
        <mxCell id="mtszT1-ioxk5tEWMHgzG-15" value="Shift" style="ellipse;whiteSpace=wrap;html=1;align=center;" vertex="1" parent="1">
          <mxGeometry x="340" y="40" width="100" height="40" as="geometry" />
        </mxCell>
        <mxCell id="mtszT1-ioxk5tEWMHgzG-26" value="" style="edgeStyle=orthogonalEdgeStyle;rounded=0;orthogonalLoop=1;jettySize=auto;html=1;endArrow=none;endFill=0;" edge="1" parent="1" source="mtszT1-ioxk5tEWMHgzG-19" target="mtszT1-ioxk5tEWMHgzG-25">
          <mxGeometry relative="1" as="geometry" />
        </mxCell>
        <mxCell id="mtszT1-ioxk5tEWMHgzG-19" value="FLIES" style="shape=rhombus;perimeter=rhombusPerimeter;whiteSpace=wrap;html=1;align=center;" vertex="1" parent="1">
          <mxGeometry x="-140" y="210" width="120" height="60" as="geometry" />
        </mxCell>
        <mxCell id="mtszT1-ioxk5tEWMHgzG-145" style="edgeStyle=orthogonalEdgeStyle;rounded=0;orthogonalLoop=1;jettySize=auto;html=1;exitX=1;exitY=0.75;exitDx=0;exitDy=0;entryX=0.75;entryY=0;entryDx=0;entryDy=0;endArrow=none;endFill=0;" edge="1" parent="1" source="mtszT1-ioxk5tEWMHgzG-25" target="mtszT1-ioxk5tEWMHgzG-100">
          <mxGeometry relative="1" as="geometry">
            <Array as="points">
              <mxPoint x="440" y="248" />
              <mxPoint x="440" y="640" />
            </Array>
          </mxGeometry>
        </mxCell>
        <mxCell id="mtszT1-ioxk5tEWMHgzG-25" value="PILOT" style="whiteSpace=wrap;html=1;" vertex="1" parent="1">
          <mxGeometry x="190" y="224.38" width="110" height="31.25" as="geometry" />
        </mxCell>
        <mxCell id="mtszT1-ioxk5tEWMHgzG-29" style="edgeStyle=orthogonalEdgeStyle;rounded=0;orthogonalLoop=1;jettySize=auto;html=1;exitX=0.5;exitY=1;exitDx=0;exitDy=0;entryX=0.25;entryY=0;entryDx=0;entryDy=0;endArrow=none;endFill=0;" edge="1" parent="1" source="mtszT1-ioxk5tEWMHgzG-27" target="mtszT1-ioxk5tEWMHgzG-25">
          <mxGeometry relative="1" as="geometry" />
        </mxCell>
        <mxCell id="mtszT1-ioxk5tEWMHgzG-27" value="Restr" style="ellipse;whiteSpace=wrap;html=1;align=center;" vertex="1" parent="1">
          <mxGeometry x="160" y="180" width="80" height="30" as="geometry" />
        </mxCell>
        <mxCell id="mtszT1-ioxk5tEWMHgzG-30" style="edgeStyle=orthogonalEdgeStyle;rounded=0;orthogonalLoop=1;jettySize=auto;html=1;exitX=0;exitY=1;exitDx=0;exitDy=0;entryX=0.75;entryY=0;entryDx=0;entryDy=0;endArrow=none;endFill=0;" edge="1" parent="1" source="mtszT1-ioxk5tEWMHgzG-28" target="mtszT1-ioxk5tEWMHgzG-25">
          <mxGeometry relative="1" as="geometry">
            <Array as="points">
              <mxPoint x="273" y="204" />
            </Array>
          </mxGeometry>
        </mxCell>
        <mxCell id="mtszT1-ioxk5tEWMHgzG-28" value="lic_num" style="ellipse;whiteSpace=wrap;html=1;align=center;" vertex="1" parent="1">
          <mxGeometry x="260" y="180" width="80" height="30" as="geometry" />
        </mxCell>
        <mxCell id="mtszT1-ioxk5tEWMHgzG-32" style="edgeStyle=orthogonalEdgeStyle;rounded=0;orthogonalLoop=1;jettySize=auto;html=1;endArrow=none;endFill=0;" edge="1" parent="1" source="mtszT1-ioxk5tEWMHgzG-31" target="mtszT1-ioxk5tEWMHgzG-1">
          <mxGeometry relative="1" as="geometry" />
        </mxCell>
        <mxCell id="mtszT1-ioxk5tEWMHgzG-34" value="" style="edgeStyle=orthogonalEdgeStyle;rounded=0;orthogonalLoop=1;jettySize=auto;html=1;endArrow=none;endFill=0;" edge="1" parent="1" source="mtszT1-ioxk5tEWMHgzG-31" target="mtszT1-ioxk5tEWMHgzG-33">
          <mxGeometry relative="1" as="geometry" />
        </mxCell>
        <mxCell id="mtszT1-ioxk5tEWMHgzG-31" value="OF_TYPE" style="shape=rhombus;perimeter=rhombusPerimeter;whiteSpace=wrap;html=1;align=center;" vertex="1" parent="1">
          <mxGeometry x="-250" y="261.25" width="120" height="60" as="geometry" />
        </mxCell>
        <mxCell id="mtszT1-ioxk5tEWMHgzG-60" style="edgeStyle=orthogonalEdgeStyle;rounded=0;orthogonalLoop=1;jettySize=auto;html=1;endArrow=none;endFill=0;" edge="1" parent="1" source="mtszT1-ioxk5tEWMHgzG-33" target="mtszT1-ioxk5tEWMHgzG-59">
          <mxGeometry relative="1" as="geometry" />
        </mxCell>
        <mxCell id="mtszT1-ioxk5tEWMHgzG-33" value="AIRPLANE" style="rounded=1;whiteSpace=wrap;html=1;" vertex="1" parent="1">
          <mxGeometry x="-250" y="390" width="120" height="41.25" as="geometry" />
        </mxCell>
        <mxCell id="mtszT1-ioxk5tEWMHgzG-37" style="edgeStyle=orthogonalEdgeStyle;rounded=0;orthogonalLoop=1;jettySize=auto;html=1;exitX=0.5;exitY=1;exitDx=0;exitDy=0;entryX=0;entryY=0.5;entryDx=0;entryDy=0;endArrow=none;endFill=0;" edge="1" parent="1" source="mtszT1-ioxk5tEWMHgzG-35" target="mtszT1-ioxk5tEWMHgzG-33">
          <mxGeometry relative="1" as="geometry" />
        </mxCell>
        <mxCell id="mtszT1-ioxk5tEWMHgzG-35" value="&lt;u&gt;Reg#&lt;/u&gt;" style="ellipse;whiteSpace=wrap;html=1;align=center;" vertex="1" parent="1">
          <mxGeometry x="-350" y="321.25" width="100" height="40" as="geometry" />
        </mxCell>
        <mxCell id="mtszT1-ioxk5tEWMHgzG-41" value="" style="edgeStyle=orthogonalEdgeStyle;rounded=0;orthogonalLoop=1;jettySize=auto;html=1;endArrow=none;endFill=0;" edge="1" parent="1" source="mtszT1-ioxk5tEWMHgzG-38">
          <mxGeometry relative="1" as="geometry">
            <mxPoint x="70" y="339.05999999999995" as="targetPoint" />
          </mxGeometry>
        </mxCell>
        <mxCell id="mtszT1-ioxk5tEWMHgzG-38" value="PLANE_SERVICE" style="shape=rhombus;double=1;perimeter=rhombusPerimeter;whiteSpace=wrap;html=1;align=center;" vertex="1" parent="1">
          <mxGeometry y="380.63" width="140" height="59.37" as="geometry" />
        </mxCell>
        <mxCell id="mtszT1-ioxk5tEWMHgzG-39" style="edgeStyle=orthogonalEdgeStyle;rounded=0;orthogonalLoop=1;jettySize=auto;html=1;entryX=0;entryY=0.5;entryDx=0;entryDy=0;endArrow=none;endFill=0;" edge="1" parent="1" source="mtszT1-ioxk5tEWMHgzG-33" target="mtszT1-ioxk5tEWMHgzG-38">
          <mxGeometry relative="1" as="geometry" />
        </mxCell>
        <mxCell id="mtszT1-ioxk5tEWMHgzG-42" value="SERVICE" style="shape=ext;margin=3;double=1;whiteSpace=wrap;html=1;align=center;" vertex="1" parent="1">
          <mxGeometry x="20" y="331.25" width="100" height="30" as="geometry" />
        </mxCell>
        <mxCell id="mtszT1-ioxk5tEWMHgzG-57" value="" style="edgeStyle=orthogonalEdgeStyle;rounded=0;orthogonalLoop=1;jettySize=auto;html=1;endArrow=none;endFill=0;" edge="1" parent="1" source="mtszT1-ioxk5tEWMHgzG-46" target="mtszT1-ioxk5tEWMHgzG-42">
          <mxGeometry relative="1" as="geometry" />
        </mxCell>
        <mxCell id="mtszT1-ioxk5tEWMHgzG-46" value="&lt;span style=&quot;border-bottom: 1px dotted&quot;&gt;Date/workcode&lt;/span&gt;" style="ellipse;whiteSpace=wrap;html=1;align=center;" vertex="1" parent="1">
          <mxGeometry x="-100" y="340" width="100" height="40" as="geometry" />
        </mxCell>
        <mxCell id="mtszT1-ioxk5tEWMHgzG-50" value="" style="edgeStyle=orthogonalEdgeStyle;rounded=0;orthogonalLoop=1;jettySize=auto;html=1;endArrow=none;endFill=0;" edge="1" parent="1" source="mtszT1-ioxk5tEWMHgzG-47" target="mtszT1-ioxk5tEWMHgzG-46">
          <mxGeometry relative="1" as="geometry">
            <Array as="points">
              <mxPoint x="-70" y="350" />
              <mxPoint x="-70" y="350" />
            </Array>
          </mxGeometry>
        </mxCell>
        <mxCell id="mtszT1-ioxk5tEWMHgzG-47" value="Date" style="ellipse;whiteSpace=wrap;html=1;align=center;" vertex="1" parent="1">
          <mxGeometry x="-130" y="291.25" width="70" height="28.75" as="geometry" />
        </mxCell>
        <mxCell id="mtszT1-ioxk5tEWMHgzG-49" value="" style="edgeStyle=orthogonalEdgeStyle;rounded=0;orthogonalLoop=1;jettySize=auto;html=1;endArrow=none;endFill=0;" edge="1" parent="1" source="mtszT1-ioxk5tEWMHgzG-48" target="mtszT1-ioxk5tEWMHgzG-46">
          <mxGeometry relative="1" as="geometry">
            <Array as="points">
              <mxPoint x="-30" y="350" />
              <mxPoint x="-30" y="350" />
            </Array>
          </mxGeometry>
        </mxCell>
        <mxCell id="mtszT1-ioxk5tEWMHgzG-48" value="Workcode" style="ellipse;whiteSpace=wrap;html=1;align=center;" vertex="1" parent="1">
          <mxGeometry x="-50" y="291" width="70" height="29" as="geometry" />
        </mxCell>
        <mxCell id="mtszT1-ioxk5tEWMHgzG-53" style="edgeStyle=orthogonalEdgeStyle;rounded=0;orthogonalLoop=1;jettySize=auto;html=1;endArrow=none;endFill=0;" edge="1" parent="1" source="mtszT1-ioxk5tEWMHgzG-52" target="mtszT1-ioxk5tEWMHgzG-42">
          <mxGeometry relative="1" as="geometry" />
        </mxCell>
        <mxCell id="mtszT1-ioxk5tEWMHgzG-52" value="Hours" style="ellipse;whiteSpace=wrap;html=1;align=center;" vertex="1" parent="1">
          <mxGeometry x="170" y="326.25" width="100" height="40" as="geometry" />
        </mxCell>
        <mxCell id="mtszT1-ioxk5tEWMHgzG-55" style="edgeStyle=orthogonalEdgeStyle;rounded=0;orthogonalLoop=1;jettySize=auto;html=1;endArrow=none;endFill=0;" edge="1" parent="1" source="mtszT1-ioxk5tEWMHgzG-54">
          <mxGeometry relative="1" as="geometry">
            <mxPoint x="70" y="320" as="targetPoint" />
            <Array as="points">
              <mxPoint x="70" y="330" />
              <mxPoint x="70" y="330" />
            </Array>
          </mxGeometry>
        </mxCell>
        <mxCell id="mtszT1-ioxk5tEWMHgzG-56" style="edgeStyle=orthogonalEdgeStyle;rounded=0;orthogonalLoop=1;jettySize=auto;html=1;exitX=1;exitY=0;exitDx=0;exitDy=0;entryX=0;entryY=1;entryDx=0;entryDy=0;endArrow=none;endFill=0;" edge="1" parent="1" source="mtszT1-ioxk5tEWMHgzG-54" target="mtszT1-ioxk5tEWMHgzG-13">
          <mxGeometry relative="1" as="geometry">
            <Array as="points">
              <mxPoint x="100" y="140" />
            </Array>
          </mxGeometry>
        </mxCell>
        <mxCell id="mtszT1-ioxk5tEWMHgzG-54" value="Maintain" style="shape=rhombus;perimeter=rhombusPerimeter;whiteSpace=wrap;html=1;align=center;" vertex="1" parent="1">
          <mxGeometry x="30" y="165" width="120" height="60" as="geometry" />
        </mxCell>
        <mxCell id="mtszT1-ioxk5tEWMHgzG-62" value="" style="edgeStyle=orthogonalEdgeStyle;rounded=0;orthogonalLoop=1;jettySize=auto;html=1;endArrow=none;endFill=0;" edge="1" parent="1" source="mtszT1-ioxk5tEWMHgzG-59" target="mtszT1-ioxk5tEWMHgzG-61">
          <mxGeometry relative="1" as="geometry" />
        </mxCell>
        <mxCell id="mtszT1-ioxk5tEWMHgzG-59" value="STORED_IN" style="shape=rhombus;perimeter=rhombusPerimeter;whiteSpace=wrap;html=1;align=center;" vertex="1" parent="1">
          <mxGeometry x="-250" y="490" width="120" height="60" as="geometry" />
        </mxCell>
        <mxCell id="mtszT1-ioxk5tEWMHgzG-61" value="HANGAR" style="rounded=1;whiteSpace=wrap;html=1;" vertex="1" parent="1">
          <mxGeometry x="-260" y="570" width="140" height="40" as="geometry" />
        </mxCell>
        <mxCell id="mtszT1-ioxk5tEWMHgzG-68" style="edgeStyle=orthogonalEdgeStyle;rounded=0;orthogonalLoop=1;jettySize=auto;html=1;exitX=1;exitY=0;exitDx=0;exitDy=0;entryX=0;entryY=1;entryDx=0;entryDy=0;endArrow=none;endFill=0;" edge="1" parent="1" source="mtszT1-ioxk5tEWMHgzG-65" target="mtszT1-ioxk5tEWMHgzG-61">
          <mxGeometry relative="1" as="geometry" />
        </mxCell>
        <mxCell id="mtszT1-ioxk5tEWMHgzG-65" value="&lt;u&gt;Number&lt;/u&gt;" style="ellipse;whiteSpace=wrap;html=1;align=center;" vertex="1" parent="1">
          <mxGeometry x="-300" y="630" width="100" height="40" as="geometry" />
        </mxCell>
        <mxCell id="mtszT1-ioxk5tEWMHgzG-76" style="edgeStyle=orthogonalEdgeStyle;rounded=0;orthogonalLoop=1;jettySize=auto;html=1;exitX=0.5;exitY=0;exitDx=0;exitDy=0;entryX=0.5;entryY=1;entryDx=0;entryDy=0;endArrow=none;endFill=0;" edge="1" parent="1" source="mtszT1-ioxk5tEWMHgzG-66" target="mtszT1-ioxk5tEWMHgzG-61">
          <mxGeometry relative="1" as="geometry">
            <Array as="points">
              <mxPoint x="-190" y="680" />
            </Array>
          </mxGeometry>
        </mxCell>
        <mxCell id="mtszT1-ioxk5tEWMHgzG-66" value="Capacity" style="ellipse;whiteSpace=wrap;html=1;align=center;" vertex="1" parent="1">
          <mxGeometry x="-250" y="680" width="100" height="40" as="geometry" />
        </mxCell>
        <mxCell id="mtszT1-ioxk5tEWMHgzG-70" style="edgeStyle=orthogonalEdgeStyle;rounded=0;orthogonalLoop=1;jettySize=auto;html=1;exitX=0;exitY=0;exitDx=0;exitDy=0;entryX=0.75;entryY=1;entryDx=0;entryDy=0;endArrow=none;endFill=0;" edge="1" parent="1" source="mtszT1-ioxk5tEWMHgzG-67" target="mtszT1-ioxk5tEWMHgzG-61">
          <mxGeometry relative="1" as="geometry" />
        </mxCell>
        <mxCell id="mtszT1-ioxk5tEWMHgzG-67" value="Location" style="ellipse;whiteSpace=wrap;html=1;align=center;" vertex="1" parent="1">
          <mxGeometry x="-180" y="630" width="100" height="40" as="geometry" />
        </mxCell>
        <mxCell id="mtszT1-ioxk5tEWMHgzG-72" style="edgeStyle=orthogonalEdgeStyle;rounded=0;orthogonalLoop=1;jettySize=auto;html=1;entryX=1;entryY=1;entryDx=0;entryDy=0;endArrow=none;endFill=0;" edge="1" parent="1" source="mtszT1-ioxk5tEWMHgzG-71" target="mtszT1-ioxk5tEWMHgzG-33">
          <mxGeometry relative="1" as="geometry">
            <Array as="points">
              <mxPoint x="-130" y="500" />
            </Array>
          </mxGeometry>
        </mxCell>
        <mxCell id="mtszT1-ioxk5tEWMHgzG-78" style="edgeStyle=orthogonalEdgeStyle;rounded=0;orthogonalLoop=1;jettySize=auto;html=1;endArrow=none;endFill=0;" edge="1" parent="1" source="mtszT1-ioxk5tEWMHgzG-71" target="mtszT1-ioxk5tEWMHgzG-77">
          <mxGeometry relative="1" as="geometry" />
        </mxCell>
        <mxCell id="mtszT1-ioxk5tEWMHgzG-71" value="OWNS" style="shape=rhombus;perimeter=rhombusPerimeter;whiteSpace=wrap;html=1;align=center;" vertex="1" parent="1">
          <mxGeometry x="-10" y="470" width="120" height="60" as="geometry" />
        </mxCell>
        <mxCell id="mtszT1-ioxk5tEWMHgzG-74" style="edgeStyle=orthogonalEdgeStyle;rounded=0;orthogonalLoop=1;jettySize=auto;html=1;entryX=0;entryY=1;entryDx=0;entryDy=0;endArrow=none;endFill=0;" edge="1" parent="1" source="mtszT1-ioxk5tEWMHgzG-73" target="mtszT1-ioxk5tEWMHgzG-71">
          <mxGeometry relative="1" as="geometry">
            <Array as="points">
              <mxPoint x="-20" y="515" />
            </Array>
          </mxGeometry>
        </mxCell>
        <mxCell id="mtszT1-ioxk5tEWMHgzG-73" value="Pdate" style="ellipse;whiteSpace=wrap;html=1;align=center;" vertex="1" parent="1">
          <mxGeometry x="-60" y="530" width="80" height="30" as="geometry" />
        </mxCell>
        <mxCell id="mtszT1-ioxk5tEWMHgzG-82" style="edgeStyle=orthogonalEdgeStyle;rounded=0;orthogonalLoop=1;jettySize=auto;html=1;entryX=0.5;entryY=0;entryDx=0;entryDy=0;endArrow=none;endFill=0;" edge="1" parent="1" target="mtszT1-ioxk5tEWMHgzG-80">
          <mxGeometry relative="1" as="geometry">
            <mxPoint x="320" y="580" as="sourcePoint" />
          </mxGeometry>
        </mxCell>
        <mxCell id="mtszT1-ioxk5tEWMHgzG-88" style="edgeStyle=orthogonalEdgeStyle;rounded=0;orthogonalLoop=1;jettySize=auto;html=1;entryX=0.5;entryY=0;entryDx=0;entryDy=0;endArrow=none;endFill=0;" edge="1" parent="1" source="mtszT1-ioxk5tEWMHgzG-77" target="mtszT1-ioxk5tEWMHgzG-80">
          <mxGeometry relative="1" as="geometry" />
        </mxCell>
        <mxCell id="mtszT1-ioxk5tEWMHgzG-77" value="OWNER" style="whiteSpace=wrap;html=1;align=center;" vertex="1" parent="1">
          <mxGeometry x="270" y="480" width="100" height="40" as="geometry" />
        </mxCell>
        <mxCell id="mtszT1-ioxk5tEWMHgzG-101" style="edgeStyle=orthogonalEdgeStyle;rounded=0;orthogonalLoop=1;jettySize=auto;html=1;exitX=1;exitY=1;exitDx=0;exitDy=0;endArrow=none;endFill=0;" edge="1" parent="1" source="mtszT1-ioxk5tEWMHgzG-80" target="mtszT1-ioxk5tEWMHgzG-100">
          <mxGeometry relative="1" as="geometry" />
        </mxCell>
        <mxCell id="mtszT1-ioxk5tEWMHgzG-102" style="edgeStyle=orthogonalEdgeStyle;rounded=0;orthogonalLoop=1;jettySize=auto;html=1;exitX=0;exitY=1;exitDx=0;exitDy=0;entryX=0.5;entryY=0;entryDx=0;entryDy=0;endArrow=none;endFill=0;" edge="1" parent="1" source="mtszT1-ioxk5tEWMHgzG-80" target="mtszT1-ioxk5tEWMHgzG-99">
          <mxGeometry relative="1" as="geometry" />
        </mxCell>
        <mxCell id="mtszT1-ioxk5tEWMHgzG-80" value="U" style="ellipse;whiteSpace=wrap;html=1;aspect=fixed;" vertex="1" parent="1">
          <mxGeometry x="305" y="590" width="30" height="30" as="geometry" />
        </mxCell>
        <mxCell id="mtszT1-ioxk5tEWMHgzG-91" value="U" style="text;html=1;align=center;verticalAlign=middle;whiteSpace=wrap;rounded=0;fontSize=20;rotation=-180;" vertex="1" parent="1">
          <mxGeometry x="305" y="510" width="30" height="70" as="geometry" />
        </mxCell>
        <mxCell id="mtszT1-ioxk5tEWMHgzG-106" style="edgeStyle=orthogonalEdgeStyle;rounded=0;orthogonalLoop=1;jettySize=auto;html=1;exitX=0.25;exitY=1;exitDx=0;exitDy=0;entryX=1;entryY=0.5;entryDx=0;entryDy=0;endArrow=none;endFill=0;" edge="1" parent="1" source="mtszT1-ioxk5tEWMHgzG-99" target="mtszT1-ioxk5tEWMHgzG-103">
          <mxGeometry relative="1" as="geometry" />
        </mxCell>
        <mxCell id="mtszT1-ioxk5tEWMHgzG-109" style="edgeStyle=orthogonalEdgeStyle;rounded=0;orthogonalLoop=1;jettySize=auto;html=1;exitX=0.75;exitY=1;exitDx=0;exitDy=0;entryX=0;entryY=0;entryDx=0;entryDy=0;endArrow=none;endFill=0;" edge="1" parent="1" source="mtszT1-ioxk5tEWMHgzG-99" target="mtszT1-ioxk5tEWMHgzG-105">
          <mxGeometry relative="1" as="geometry" />
        </mxCell>
        <mxCell id="mtszT1-ioxk5tEWMHgzG-99" value="CORPORATION" style="rounded=1;arcSize=10;whiteSpace=wrap;html=1;align=center;" vertex="1" parent="1">
          <mxGeometry x="180" y="640" width="100" height="40" as="geometry" />
        </mxCell>
        <mxCell id="mtszT1-ioxk5tEWMHgzG-117" style="edgeStyle=orthogonalEdgeStyle;rounded=0;orthogonalLoop=1;jettySize=auto;html=1;exitX=1;exitY=1;exitDx=0;exitDy=0;entryX=0;entryY=0.5;entryDx=0;entryDy=0;endArrow=none;endFill=0;" edge="1" parent="1" source="mtszT1-ioxk5tEWMHgzG-100" target="mtszT1-ioxk5tEWMHgzG-113">
          <mxGeometry relative="1" as="geometry">
            <Array as="points">
              <mxPoint x="460" y="700" />
              <mxPoint x="480" y="700" />
            </Array>
          </mxGeometry>
        </mxCell>
        <mxCell id="mtszT1-ioxk5tEWMHgzG-100" value="PERSON" style="rounded=1;arcSize=10;whiteSpace=wrap;html=1;align=center;" vertex="1" parent="1">
          <mxGeometry x="375" y="640" width="100" height="40" as="geometry" />
        </mxCell>
        <mxCell id="mtszT1-ioxk5tEWMHgzG-103" value="&lt;u&gt;Name&lt;/u&gt;" style="ellipse;whiteSpace=wrap;html=1;align=center;" vertex="1" parent="1">
          <mxGeometry x="110" y="685" width="80" height="30" as="geometry" />
        </mxCell>
        <mxCell id="mtszT1-ioxk5tEWMHgzG-108" style="edgeStyle=orthogonalEdgeStyle;rounded=0;orthogonalLoop=1;jettySize=auto;html=1;entryX=0.25;entryY=1;entryDx=0;entryDy=0;endArrow=none;endFill=0;" edge="1" parent="1" source="mtszT1-ioxk5tEWMHgzG-104" target="mtszT1-ioxk5tEWMHgzG-99">
          <mxGeometry relative="1" as="geometry">
            <Array as="points">
              <mxPoint x="215" y="680" />
            </Array>
          </mxGeometry>
        </mxCell>
        <mxCell id="mtszT1-ioxk5tEWMHgzG-104" value="address" style="ellipse;whiteSpace=wrap;html=1;align=center;" vertex="1" parent="1">
          <mxGeometry x="170" y="720" width="90" height="30" as="geometry" />
        </mxCell>
        <mxCell id="mtszT1-ioxk5tEWMHgzG-105" value="phone" style="ellipse;whiteSpace=wrap;html=1;align=center;" vertex="1" parent="1">
          <mxGeometry x="240" y="690" width="80" height="30" as="geometry" />
        </mxCell>
        <mxCell id="mtszT1-ioxk5tEWMHgzG-107" style="edgeStyle=orthogonalEdgeStyle;rounded=0;orthogonalLoop=1;jettySize=auto;html=1;exitX=0.5;exitY=1;exitDx=0;exitDy=0;" edge="1" parent="1" source="mtszT1-ioxk5tEWMHgzG-104" target="mtszT1-ioxk5tEWMHgzG-104">
          <mxGeometry relative="1" as="geometry" />
        </mxCell>
        <mxCell id="mtszT1-ioxk5tEWMHgzG-114" style="edgeStyle=orthogonalEdgeStyle;rounded=0;orthogonalLoop=1;jettySize=auto;html=1;entryX=0;entryY=1;entryDx=0;entryDy=0;endArrow=none;endFill=0;" edge="1" parent="1" source="mtszT1-ioxk5tEWMHgzG-110" target="mtszT1-ioxk5tEWMHgzG-100">
          <mxGeometry relative="1" as="geometry">
            <Array as="points">
              <mxPoint x="380" y="680" />
            </Array>
          </mxGeometry>
        </mxCell>
        <mxCell id="mtszT1-ioxk5tEWMHgzG-110" value="&lt;u&gt;ssn&lt;/u&gt;" style="ellipse;whiteSpace=wrap;html=1;align=center;" vertex="1" parent="1">
          <mxGeometry x="335" y="710" width="60" height="30" as="geometry" />
        </mxCell>
        <mxCell id="mtszT1-ioxk5tEWMHgzG-115" style="edgeStyle=orthogonalEdgeStyle;rounded=0;orthogonalLoop=1;jettySize=auto;html=1;endArrow=none;endFill=0;" edge="1" parent="1" source="mtszT1-ioxk5tEWMHgzG-111" target="mtszT1-ioxk5tEWMHgzG-100">
          <mxGeometry relative="1" as="geometry" />
        </mxCell>
        <mxCell id="mtszT1-ioxk5tEWMHgzG-111" value="name" style="ellipse;whiteSpace=wrap;html=1;align=center;" vertex="1" parent="1">
          <mxGeometry x="370" y="740" width="80" height="30" as="geometry" />
        </mxCell>
        <mxCell id="mtszT1-ioxk5tEWMHgzG-116" style="edgeStyle=orthogonalEdgeStyle;rounded=0;orthogonalLoop=1;jettySize=auto;html=1;exitX=0;exitY=0;exitDx=0;exitDy=0;entryX=0.75;entryY=1;entryDx=0;entryDy=0;endArrow=none;endFill=0;" edge="1" parent="1" source="mtszT1-ioxk5tEWMHgzG-112" target="mtszT1-ioxk5tEWMHgzG-100">
          <mxGeometry relative="1" as="geometry">
            <Array as="points">
              <mxPoint x="453" y="720" />
              <mxPoint x="435" y="720" />
            </Array>
          </mxGeometry>
        </mxCell>
        <mxCell id="mtszT1-ioxk5tEWMHgzG-112" value="address" style="ellipse;whiteSpace=wrap;html=1;align=center;" vertex="1" parent="1">
          <mxGeometry x="450" y="730" width="90" height="30" as="geometry" />
        </mxCell>
        <mxCell id="mtszT1-ioxk5tEWMHgzG-113" value="phone" style="ellipse;whiteSpace=wrap;html=1;align=center;" vertex="1" parent="1">
          <mxGeometry x="480" y="687.5" width="90" height="35" as="geometry" />
        </mxCell>
        <mxCell id="mtszT1-ioxk5tEWMHgzG-120" style="edgeStyle=orthogonalEdgeStyle;rounded=0;orthogonalLoop=1;jettySize=auto;html=1;exitX=0.5;exitY=1;exitDx=0;exitDy=0;" edge="1" parent="1" source="mtszT1-ioxk5tEWMHgzG-112" target="mtszT1-ioxk5tEWMHgzG-112">
          <mxGeometry relative="1" as="geometry" />
        </mxCell>
        <mxCell id="mtszT1-ioxk5tEWMHgzG-122" style="edgeStyle=orthogonalEdgeStyle;rounded=0;orthogonalLoop=1;jettySize=auto;html=1;exitX=0.5;exitY=1;exitDx=0;exitDy=0;" edge="1" parent="1" source="mtszT1-ioxk5tEWMHgzG-112" target="mtszT1-ioxk5tEWMHgzG-112">
          <mxGeometry relative="1" as="geometry" />
        </mxCell>
        <mxCell id="mtszT1-ioxk5tEWMHgzG-129" value="&lt;font style=&quot;font-size: 20px;&quot;&gt;U&lt;/font&gt;" style="text;html=1;align=center;verticalAlign=middle;resizable=0;points=[];autosize=1;strokeColor=none;fillColor=none;rotation=-180;" vertex="1" parent="1">
          <mxGeometry x="460" y="150" width="40" height="40" as="geometry" />
        </mxCell>
        <mxCell id="mtszT1-ioxk5tEWMHgzG-133" value="&lt;font style=&quot;font-size: 22px;&quot;&gt;U&lt;/font&gt;" style="text;html=1;align=center;verticalAlign=middle;resizable=0;points=[];autosize=1;strokeColor=none;fillColor=none;rotation=-180;" vertex="1" parent="1">
          <mxGeometry x="420" y="300" width="40" height="40" as="geometry" />
        </mxCell>
      </root>
    </mxGraphModel>
  </diagram>
</mxfile>
